<svg width="300" height="300" viewBox="0 0 300 300" fill="none" xmlns="http://www.w3.org/2000/svg">
<rect width="300" height="300" rx="68" fill="#130258"/>
<rect width="300" height="300" rx="68" fill="url(#paint0_linear_2_5)" fill-opacity="0.51"/>
<path d="M226.249 90.1723C227.533 89.6892 229.037 89.7521 230.251 90.3666C231.469 90.9815 232.273 92.0866 232.273 93.3393V185.905C232.273 187.227 231.385 188.367 230.085 188.957L229.819 189.068L151.286 218.928V218.927C150.717 219.144 150.106 219.25 149.5 219.25C148.893 219.25 148.283 219.145 147.715 218.928L69.1814 189.068C67.7383 188.518 66.7274 187.315 66.7273 185.905V93.3393C66.7273 92.087 67.5301 90.9826 68.7439 90.3676V90.3666C69.9538 89.7549 71.4655 89.6884 72.7517 90.1752H72.7527L149.499 119.355L226.248 90.1723H226.249ZM151.286 126.363C150.158 126.791 148.846 126.791 147.718 126.363H147.718L75.2068 98.7934V183.672L149.5 211.92L223.794 183.672V98.7934L151.286 126.363Z" fill="white" stroke="white"/>
<path d="M211.303 81.0674C213.347 80.3038 215.851 80.9532 216.892 82.6943V82.6953C217.42 83.5811 217.452 84.5699 217.067 85.4355C216.686 86.2941 215.911 87.0025 214.871 87.3984L149.678 112.186L149.5 112.253L149.322 112.186L84.129 87.3984H84.128C83.0885 87.0025 82.3137 86.2939 81.9327 85.4355C81.5484 84.5699 81.5805 83.5811 82.1085 82.6953V82.6943C83.1163 81.0076 85.5019 80.3453 87.5049 81L87.6973 81.0674L87.7002 81.0684L149.5 104.568L211.3 81.0684L211.303 81.0674Z" fill="white" stroke="white"/>
<path d="M153.74 122.699V216.264H145.26V122.699H153.74Z" fill="white" stroke="white"/>
<defs>
<linearGradient id="paint0_linear_2_5" x1="0" y1="0" x2="300" y2="307" gradientUnits="userSpaceOnUse">
<stop offset="0.129808" stop-color="#FF00C8" stop-opacity="0"/>
<stop offset="0.889423" stop-color="#FF00C8"/>
</linearGradient>
</defs>
</svg>
